<svg width="86" height="31" viewBox="0 0 86 31" fill="none" xmlns="http://www.w3.org/2000/svg">
<path d="M79.6755 20.2321V23.7239H85.326V19.5548C85.326 18.2004 85.1778 16.9518 84.9027 15.8514C84.6487 14.7509 84.2043 13.7774 83.5483 12.9732C82.9134 12.169 82.0669 11.5553 80.9664 11.1109C79.9083 10.6665 78.575 10.4337 76.9455 10.4337C76.3953 10.4337 75.8027 10.4972 75.2101 10.6241C74.6387 10.73 74.152 10.8358 73.7711 10.9627V1.41833L68.1206 2.32833V30.7923H73.7711V15.6397C74.1308 15.5339 74.5118 15.4493 74.935 15.3646C75.3794 15.2588 75.8662 15.2165 76.3741 15.2165C77.6439 15.2165 78.4904 15.5974 78.9559 16.3593C79.4427 17.1211 79.6755 18.4121 79.6755 20.2321Z" fill="#FFFDE8"/>
<path d="M85.3253 30.8135L79.6113 30.2983V25.3112H85.3253V30.8135Z" fill="#FDAE40"/>
<path fill-rule="evenodd" clip-rule="evenodd" d="M66.1724 20.6767C64.3736 22.3909 61.961 23.4279 59.2733 23.4279C53.771 23.4279 49.3057 18.9626 49.3057 13.4602C49.3057 7.9579 53.771 3.49255 59.2733 3.49255C61.9822 3.49255 64.4371 4.57185 66.2359 6.32837L62.6382 9.92604C61.7494 9.10069 60.5643 8.59279 59.231 8.59279C56.4799 8.59279 54.2578 10.8149 54.2578 13.566C54.2578 16.3172 56.4799 18.5393 59.231 18.5393C60.5643 18.5393 61.7494 18.0314 62.6594 17.1849L66.1724 20.6767Z" fill="#FDAE40"/>
<path fill-rule="evenodd" clip-rule="evenodd" d="M66.1724 27.9355C64.3736 29.6497 61.961 30.6867 59.2733 30.6867C53.771 30.6867 49.3057 26.2213 49.3057 20.719C49.3057 15.2167 53.771 10.7513 59.2733 10.7513C61.9822 10.7513 64.4371 11.8307 66.2359 13.5872L62.6594 17.1848C61.7705 16.3595 60.5643 15.8516 59.231 15.8516C56.4799 15.8516 54.2578 18.0737 54.2578 20.8248C54.2578 23.576 56.4799 25.7981 59.231 25.7981C60.5643 25.7981 61.7494 25.2902 62.6594 24.4437L66.1724 27.9355Z" fill="#FF5D46"/>
<path d="M47.3173 25.4171C46.7882 25.6287 46.1956 25.7768 45.5396 25.9038C44.9047 26.0096 44.291 26.052 43.6773 26.052C42.4075 26.052 41.561 25.6922 41.1377 24.9938C40.7356 24.2955 40.524 23.3431 40.524 22.158V15.1531H47.2961V10.455H40.524V4.5929L34.8735 5.50289V22.2427C34.8735 23.5336 34.9793 24.6975 35.2121 25.7557C35.4661 26.8138 35.8893 27.7238 36.5031 28.4857C37.1168 29.2264 37.921 29.7978 38.9368 30.221C39.9526 30.6231 41.2224 30.8348 42.7673 30.8348C43.9735 30.8348 45.0105 30.7289 45.8359 30.5385C46.6612 30.3268 47.4231 30.0941 48.1003 29.8189L47.3173 25.4171Z" fill="#FFFDE8"/>
<path d="M23.6787 9.92615C22.4724 9.92615 21.2873 10.1589 20.1233 10.6034C18.9806 11.0478 17.9859 11.725 17.0971 12.6138C16.2082 13.5027 15.4887 14.6031 14.9385 15.9364C14.4094 17.2485 14.1343 18.7934 14.1343 20.5499C14.1343 22.0101 14.3459 23.3857 14.748 24.6343C15.1713 25.9041 15.8273 27.0045 16.6738 27.9357C17.5626 28.8457 18.6631 29.5652 19.9752 30.0943C21.3085 30.6234 22.8745 30.8985 24.6733 30.8985C25.3717 30.8985 26.0913 30.8561 26.7896 30.7927C27.488 30.708 28.144 30.6234 28.7578 30.4964C29.3926 30.3906 29.964 30.2636 30.472 30.1154C30.9799 29.9673 31.382 29.8192 31.6782 29.671L30.9164 25.0787C30.2815 25.3538 29.4561 25.5866 28.4615 25.7982C27.4668 25.9675 26.4722 26.0734 25.4352 26.0734C23.8268 26.0734 22.5359 25.7348 21.5624 25.0575C20.6101 24.3803 20.0599 23.4492 19.9329 22.2852H32.7364C32.7575 21.9889 32.7787 21.6503 32.821 21.2694C32.8422 20.8673 32.8633 20.5075 32.8633 20.1689C32.8633 16.8041 32.038 14.2645 30.4085 12.5503C28.7366 10.7938 26.5145 9.92615 23.6787 9.92615ZM19.9329 18.4124C20.0175 17.9257 20.1233 17.4601 20.2715 17.0157C20.4408 16.5289 20.6947 16.1268 20.991 15.7671C21.2873 15.4073 21.6682 15.1322 22.1338 14.9417C22.5782 14.7089 23.1285 14.6031 23.7633 14.6031C24.4194 14.6031 24.9696 14.7089 25.3929 14.9417C25.8373 15.1745 26.2182 15.4496 26.4933 15.8094C26.7896 16.1692 27.0013 16.5713 27.1282 17.0157C27.2764 17.4601 27.361 17.9468 27.4033 18.4124H19.9329Z" fill="#FFFDE8"/>
<path d="M6.47292 7.97901C6.5999 7.53459 6.79036 7.13249 7.04432 6.81505C7.31943 6.47645 7.6792 6.24366 8.14478 6.05319C8.63153 5.84156 9.20292 5.75691 9.88013 5.75691C10.388 5.75691 10.9383 5.8204 11.5097 5.94738C12.1234 6.05319 12.6736 6.22249 13.1815 6.43412L14.282 1.92645C13.7952 1.71482 13.118 1.52435 12.2292 1.31273C11.3404 1.07994 10.3669 0.974121 9.30873 0.974121C6.45176 0.974121 4.29315 1.73598 2.83292 3.23854C1.39385 4.76226 0.674316 6.79388 0.674316 9.37574V23.5125H6.32478V15.132H13.2873V10.4339H6.32478V9.43924C6.32478 8.93133 6.36711 8.44459 6.47292 7.97901Z" fill="#FFFDE8"/>
<path d="M0.674316 30.8349L6.32478 30.3058V25.2056H0.674316V30.8349Z" fill="#FF5D46"/>
</svg>
